<svg width="50" height="50" viewBox="0 0 50 50" fill="none" xmlns="http://www.w3.org/2000/svg">
<circle cx="25" cy="25" r="25" fill="#F76A4B"/>
<path d="M38.5938 17.5H38.125V14.6875C38.125 12.0625 32.3125 10 25 10C17.6875 10 11.875 12.0625 11.875 14.6875V17.5H11.4062C10.6299 17.5 10 18.1293 10 18.9062V23.5938C10 24.3701 10.6299 25 11.4062 25H11.875V34.375C11.875 35.4104 12.7146 36.25 13.75 36.25V38.125C13.75 39.1604 14.5896 40 15.625 40H17.5C18.5354 40 19.375 39.1604 19.375 38.125V36.25H30.625V38.125C30.625 39.1604 31.4646 40 32.5 40H34.375C35.4104 40 36.25 39.1604 36.25 38.125V36.25H36.625C37.5625 36.25 38.125 35.5 38.125 34.75V25H38.5938C39.3701 25 40 24.3701 40 23.5938V18.9062C40 18.1293 39.3701 17.5 38.5938 17.5ZM16.5625 33.4375C15.5271 33.4375 14.6875 32.5979 14.6875 31.5625C14.6875 30.5271 15.5271 29.6875 16.5625 29.6875C17.5979 29.6875 18.4375 30.5271 18.4375 31.5625C18.4375 32.5979 17.5979 33.4375 16.5625 33.4375ZM17.5 26.875C16.4646 26.875 15.625 26.0354 15.625 25V17.5C15.625 16.4646 16.4646 15.625 17.5 15.625H32.5C33.5354 15.625 34.375 16.4646 34.375 17.5V25C34.375 26.0354 33.5354 26.875 32.5 26.875H17.5ZM33.4375 33.4375C32.4021 33.4375 31.5625 32.5979 31.5625 31.5625C31.5625 30.5271 32.4021 29.6875 33.4375 29.6875C34.4729 29.6875 35.3125 30.5271 35.3125 31.5625C35.3125 32.5979 34.4729 33.4375 33.4375 33.4375Z" fill="white"/>
</svg>
